<svg version="1.1" xmlns="http://www.w3.org/2000/svg">
	<symbol fill="none" viewBox="0 0 17 18" id="icon-tg">
		<path stroke="currentColor" stroke-linecap="round" stroke-linejoin="round" stroke-width="2" d="m7.335 10.355 8.19-8.19m-8.09 8.446 2.05 5.27c.18.465.27.697.4.765a.39.39 0 0 0 .36 0c.13-.068.221-.3.402-.764l5.14-13.171c.164-.42.246-.629.2-.762a.39.39 0 0 0-.245-.247c-.134-.045-.344.037-.763.2L1.808 7.043c-.464.182-.696.272-.764.403a.39.39 0 0 0 0 .36c.068.13.3.22.764.4l5.271 2.05c.095.037.142.055.181.084a.39.39 0 0 1 .091.09c.029.04.047.088.084.182Z"/>
	</symbol>
	<symbol fill="none" viewBox="0 0 19 20" id="icon-whatsapp">
		<path stroke="currentColor" stroke-linecap="round" stroke-linejoin="round" stroke-width="2" d="M11.266 5.063c.827.16 1.588.564 2.184 1.157.596.593 1 1.35 1.162 2.174M11.266 1.69a7.637 7.637 0 0 1 4.546 2.173A7.576 7.576 0 0 1 18 8.385m-9.972 3.309a12.313 12.313 0 0 1-2.411-3.382c-.05-.105-.076-.157-.096-.224a.879.879 0 0 1 .125-.727c.04-.056.089-.104.186-.2.296-.296.444-.443.54-.591a1.68 1.68 0 0 0 0-1.839c-.096-.148-.244-.295-.54-.59l-.165-.165c-.45-.448-.676-.672-.917-.793a1.7 1.7 0 0 0-1.53 0c-.241.121-.466.345-.917.793l-.133.133c-.449.447-.673.67-.844.974-.19.337-.327.86-.326 1.246.001.349.069.587.205 1.063a16.038 16.038 0 0 0 4.128 6.985 16.142 16.142 0 0 0 7.016 4.11c.478.135.717.202 1.067.203.388.001.914-.135 1.252-.324.305-.17.53-.394.978-.84l.134-.134c.45-.448.675-.672.797-.912a1.68 1.68 0 0 0 0-1.523c-.122-.24-.347-.465-.797-.913l-.165-.164c-.296-.295-.445-.442-.594-.539a1.7 1.7 0 0 0-1.846 0c-.15.097-.297.244-.593.54-.097.095-.146.144-.202.184a.89.89 0 0 1-.73.124c-.067-.02-.12-.045-.226-.095a12.367 12.367 0 0 1-3.396-2.4Z"/>
	</symbol>
</svg>
