<svg version="1.1" xmlns="http://www.w3.org/2000/svg">
	<symbol fill="none" viewBox="0 0 18 18" id="icon-arrow-diagonal">
		<path fill="currentColor" d="M17 18a1 1 0 0 0 1-1V8a1 1 0 1 0-2 0v8H8a1 1 0 1 0 0 2h9ZM.293 1.707l16 16 1.414-1.414-16-16L.293 1.707Z"/>
	</symbol>
	<symbol fill="none" viewBox="0 0 1531 175" id="icon-consultation">
		<path fill="#F15202" fill-opacity=".5" d="M65.946 73.362 116.405 147H79.073L33.126 80.541V147H.307V3.416h32.82v62.356L77.021 3.416h37.332L65.946 73.362Zm171.973 54.972c-14.495 14.358-32.135 21.538-52.921 21.538-20.785 0-38.425-7.18-52.92-21.538-14.496-14.358-21.743-32.067-21.743-53.126 0-21.059 7.247-38.768 21.743-53.126C146.573 7.724 164.213.544 184.998.544c20.786 0 38.426 7.18 52.921 21.538 14.496 14.358 21.743 32.067 21.743 53.126 0 21.059-7.247 38.768-21.743 53.126Zm-94.765-53.126c0 12.58 3.966 22.837 11.897 30.768 7.931 7.931 17.914 11.897 29.947 11.897 11.897 0 21.812-3.966 29.743-11.897 8.068-8.068 12.102-18.324 12.102-30.768 0-12.444-4.034-22.7-12.102-30.768-7.931-7.931-17.846-11.897-29.743-11.897-12.033 0-22.016 3.966-29.947 11.897-7.931 7.931-11.897 18.187-11.897 30.768Zm212.932-16.82V3.416h32.819V147h-32.819V89.977H310.96V147h-32.819V3.416h32.819v54.972h45.126Zm125.976 91.484c-21.469 0-39.315-7.111-53.536-21.333-14.085-14.221-21.128-31.998-21.128-53.331 0-21.332 7.043-39.041 21.128-53.126C442.61 7.724 460.456.544 482.062.544c12.854 0 24.751 3.009 35.691 9.026 10.939 5.88 19.554 13.948 25.845 24.204l-28.307 16.41c-3.145-5.607-7.658-9.915-13.538-12.923-5.743-3.145-12.307-4.718-19.691-4.718-12.854 0-23.042 3.897-30.563 11.692-7.521 7.658-11.282 17.982-11.282 30.973 0 12.99 3.761 23.315 11.282 30.973 7.521 7.795 17.709 11.692 30.563 11.692 7.247 0 13.811-1.573 19.691-4.718 6.017-3.145 10.53-7.452 13.538-12.922l28.307 16.409c-6.154 10.256-14.7 18.393-25.64 24.41-10.94 5.88-22.905 8.82-35.896 8.82Zm127.629-83.69 25.23-62.766h32.819l-41.434 101.329c-12.034 29.674-32.135 43.759-60.305 42.255v-30.768c13.264 1.231 22.836-3.487 28.717-14.153L548.771 3.416h32.819l28.101 62.767ZM655.489 147v-30.768c8.205 1.231 14.222-.068 18.051-3.897 3.829-3.829 5.743-11.282 5.743-22.358V3.416h99.278V147h-32.819V35.005h-33.64v53.74c0 24.479-6.222 41.025-18.666 49.64-10.939 7.384-23.588 10.256-37.947 8.615Zm180.49-98.458h21.537c14.222 0 26.119 4.787 35.691 14.359 9.709 9.709 14.564 21.332 14.564 34.87 0 13.538-4.855 25.162-14.564 34.871-9.572 9.572-21.469 14.358-35.691 14.358h-54.357V3.416h32.82v45.126Zm0 67.69h21.537c5.06 0 9.231-1.778 12.513-5.333 3.282-3.556 4.922-7.931 4.922-13.128 0-5.196-1.64-9.572-4.922-13.127-3.282-3.556-7.453-5.334-12.513-5.334h-21.537v36.922ZM897.467 3.416h106.663v31.588h-36.923V147h-32.819V35.005h-36.921V3.416ZM1135.45 147h-35.89l-7.18-22.563h-53.33L1031.87 147h-35.898L1044.79 3.416h41.85L1135.45 147Zm-69.74-106.047-16.82 52.716h33.64l-16.82-52.716Zm190.7-37.537v111.996h15.38v59.074h-32.81V147h-91.28V3.416h32.82v111.996h43.07V3.416h32.82ZM1402.13 147h-32.82V69.054L1313.93 147h-24.61V3.416h32.82v77.946l55.38-77.946h24.61V147Zm70.75-143.584h57.44V147h-32.82V99.822h-10.46L1456.47 147h-36.92l33.64-51.28c-8.61-3.555-15.72-9.299-21.33-17.23-5.47-7.931-8.2-16.546-8.2-25.845 0-13.675 4.78-25.298 14.35-34.87 9.58-9.573 21.2-14.359 34.87-14.359Zm0 67.69h24.62V34.184h-24.62c-4.51 0-8.41 1.778-11.69 5.333-3.14 3.556-4.72 7.931-4.72 13.128 0 5.196 1.58 9.572 4.72 13.127 3.28 3.556 7.18 5.334 11.69 5.334Z"/>
	</symbol>
	<symbol fill="none" viewBox="0 0 50 54" id="icon-finger">
		<path stroke="#434343" stroke-miterlimit="79.84" stroke-width="2.667" d="M34.857 27.191h2.19c.69 0 1.772.437 2.191 1.096h2.19c1.027 0 2.191.958 2.191 2.19h2.19c1.027 0 2.191.959 2.191 2.19V43.62c0 2.216-2.19 4-2.19 5.476v1.095M34.857 33.762V19.524a2.19 2.19 0 0 0-4.381 0v16.428l-1.465 1.403-2.861-4.435c-1.754-2.414-4.436-1.06-4.436 0 0 0 3.323 9.507 3.798 10.252.765 1.197 3.869 3.89 3.869 4.828v2.19M39.238 28.287v5.476M43.62 30.477v4.38"/>
		<path stroke="#434343" stroke-miterlimit="79.84" stroke-width="2.667" d="M48 53.477V50.19H27.19v3.286"/>
		<path stroke="#F15202" stroke-miterlimit="79.84" stroke-width="2.667" d="M21.715 43.59C10.731 43.022 2 33.936 2 22.81 2 11.316 11.316 2 22.81 2c11.492 0 20.809 9.316 20.809 20.81 0 .717-.037 1.427-.108 2.127"/>
		<path stroke="#F15202" stroke-miterlimit="79.84" stroke-width="2.667" d="M22.81 7.476V22.81l-7.667 4.381"/>
	</symbol>
	<symbol fill="none" viewBox="0 0 1722 142" id="icon-individuality">
		<path fill="#F15202" d="M92.26 119H65.7V55.92L20.88 119H.96V2.8h26.56v63.08L72.34 2.8h19.92V119Zm82.987-71.712V2.8h26.56V119h-26.56V72.852h-36.52V119h-26.56V2.8h26.56v44.488h36.52ZM313.053 2.8v90.636h12.45v47.808h-26.56V119h-58.1v22.244h-26.56V93.436h11.786c6.087-8.743 9.13-21.58 9.13-38.512V2.8h77.854Zm-58.764 90.636h32.204V27.7h-24.734v27.556c0 16.49-2.49 29.216-7.47 38.18ZM430.906 119h-26.56V55.92L359.526 119h-19.92V2.8h26.56v63.08l44.82-63.08h19.92V119Zm91.952-60.258c9.517 6.197 14.276 14.94 14.276 26.228 0 10.07-3.597 18.26-10.79 24.568-7.194 6.308-16.102 9.462-26.726 9.462h-48.804V2.8h45.484c10.292 0 18.979 3.099 26.062 9.296 7.082 6.087 10.624 14.055 10.624 23.904 0 9.407-3.376 16.987-10.126 22.742ZM496.298 27.7h-18.924v20.584h18.924c2.988 0 5.422-.94 7.304-2.822 1.881-1.992 2.822-4.482 2.822-7.47 0-2.988-.941-5.423-2.822-7.304-1.882-1.992-4.316-2.988-7.304-2.988Zm-18.924 66.4h22.244c3.32 0 5.976-.996 7.968-2.988 1.992-2.103 2.988-4.814 2.988-8.134 0-3.32-.996-5.976-2.988-7.968-1.992-2.103-4.648-3.154-7.968-3.154h-22.244V94.1ZM641.649 119h-26.56V55.92L570.269 119h-19.92V2.8h26.56v63.08l44.82-63.08h19.92V119ZM752.856 2.8v90.636h12.45v47.808h-26.56V119h-58.1v22.244h-26.56V93.436h11.786c6.086-8.743 9.13-21.58 9.13-38.512V2.8h77.854Zm-58.764 90.636h32.204V27.7h-24.734v27.556c0 16.49-2.49 29.216-7.47 38.18Zm122.954-39.84L837.464 2.8h26.56l-33.532 82.004c-9.739 24.015-26.007 35.413-48.804 34.196V94.1c10.734.996 18.481-2.822 23.24-11.454L767.744 2.8h26.56l22.742 50.796ZM968.734 119h-29.05l-5.81-18.26h-43.16l-5.81 18.26h-29.05L895.362 2.8h33.864L968.734 119Zm-56.44-85.822L898.682 75.84h27.224l-13.612-42.662ZM971.963 119V94.1c6.64.996 11.509-.055 14.608-3.154 3.098-3.099 4.648-9.13 4.648-18.094V2.8h80.341V119H1045V28.364h-27.22v43.492c0 19.81-5.04 33.2-15.11 40.172-8.851 5.976-19.087 8.3-30.707 6.972Zm146.067-79.68h17.43c11.51 0 21.14 3.873 28.88 11.62 7.86 7.857 11.79 17.264 11.79 28.22s-3.93 20.363-11.79 28.22c-7.74 7.747-17.37 11.62-28.88 11.62h-43.99V2.8h26.56v36.52Zm0 54.78h17.43c4.09 0 7.47-1.439 10.13-4.316 2.65-2.877 3.98-6.419 3.98-10.624 0-4.205-1.33-7.747-3.98-10.624-2.66-2.877-6.04-4.316-10.13-4.316h-17.43V94.1Zm134.43-46.812V2.8h26.56V119h-26.56V72.852h-36.52V119h-26.56V2.8h26.56v44.488h36.52Zm144.78 56.606c-11.73 11.62-26 17.43-42.83 17.43-16.82 0-31.09-5.81-42.82-17.43-11.73-11.62-17.6-25.951-17.6-42.994s5.87-31.374 17.6-42.994c11.73-11.62 26-17.43 42.82-17.43 16.83 0 31.1 5.81 42.83 17.43 11.73 11.62 17.6 25.951 17.6 42.994s-5.87 31.374-17.6 42.994ZM1320.55 60.9c0 10.181 3.21 18.481 9.63 24.9 6.42 6.419 14.5 9.628 24.23 9.628 9.63 0 17.66-3.21 24.07-9.628 6.53-6.53 9.8-14.83 9.8-24.9 0-10.07-3.27-18.37-9.8-24.9-6.41-6.419-14.44-9.628-24.07-9.628-9.73 0-17.81 3.21-24.23 9.628-6.42 6.419-9.63 14.719-9.63 24.9Zm164.69 60.424c-17.38 0-31.82-5.755-43.33-17.264-11.4-11.51-17.1-25.896-17.1-43.16 0-17.264 5.7-31.595 17.1-42.994 11.4-11.62 25.84-17.43 43.33-17.43 10.4 0 20.03 2.435 28.88 7.304 8.85 4.759 15.83 11.288 20.92 19.588l-22.91 13.28c-2.55-4.537-6.2-8.023-10.96-10.458-4.65-2.545-9.96-3.818-15.93-3.818-10.41 0-18.65 3.154-24.74 9.462-6.08 6.197-9.13 14.553-9.13 25.066 0 10.513 3.05 18.869 9.13 25.066 6.09 6.308 14.33 9.462 24.74 9.462 5.86 0 11.17-1.273 15.93-3.818 4.87-2.545 8.52-6.031 10.96-10.458l22.91 13.28c-4.98 8.3-11.9 14.885-20.75 19.754-8.86 4.759-18.54 7.138-29.05 7.138ZM1539.18 2.8h86.32v25.564h-29.88V119h-26.56V28.364h-29.88V2.8Zm124.51 36.52h17.43c11.51 0 21.14 3.873 28.88 11.62 7.86 7.857 11.79 17.264 11.79 28.22s-3.93 20.363-11.79 28.22c-7.74 7.747-17.37 11.62-28.88 11.62h-43.99V2.8h26.56v36.52Zm0 54.78h17.43c4.09 0 7.47-1.439 10.13-4.316 2.65-2.877 3.98-6.419 3.98-10.624 0-4.205-1.33-7.747-3.98-10.624-2.66-2.877-6.04-4.316-10.13-4.316h-17.43V94.1Z" opacity=".5"/>
	</symbol>
	<symbol viewBox="0 0 527 756.35" id="icon-logo">
		<path fill="currentColor" d="M257 0h9q38 9.93 32.5 49-12.12 33.69-47.5 27.5-27.17-8.93-29-37.5 3.44-32.4 35-39ZM527 127v41q-263-.76-526-1v-41q263.01-.43 526 1ZM0 204h527v41H168v331h-41V245H0Z"/>
		<path fill="currentColor" d="M206 282h291q10.47 75.33-56 111.5a127.21 127.21 0 0 1-26 8q-43.45 2.13-87 1.5v177h-42V361q63.06.71 126-1.5 28.49-7.74 41-34.5-102.49-1.5-205-1v256q-20.87.48-41.5-1-.75-148.5-.5-297ZM48 283h42v294H48Z"/>
		<path fill="currentColor" d="M484 402h42v267h-66q-27.28-85.11-55.5-170l-1 80q-20.42.82-41.5 1V438q33.36-.5 66.5 1 27.49 83.49 55 167 .75-102 .5-204ZM169 610a65.08 65.08 0 0 1 34.5 6 14.78 14.78 0 0 0 5.5-5 50.25 50.25 0 0 1 0 20q-13.6-24.3-41-17.5-12.49 8 1 14a211.41 211.41 0 0 1 41 12q13 20.55-11 27a80.85 80.85 0 0 1-18 0q-8.87-3.18-18-5.5a52.39 52.39 0 0 0-10 6v-26h3q3.9 16.15 20 21.5a34 34 0 0 0 25 0q6.6-5.14 2-12-19.68-6.93-40-12-15.1-5.82-8.5-20.5a33.91 33.91 0 0 1 14.5-8Z"/>
		<path fill="currentColor" fill-rule="evenodd" d="M397 610a50.44 50.44 0 0 1 36 9.5q15.24 15.46 4.5 34.5-17 17.84-41.5 13.5-25.14-3.88-30-28.5 1.68-16.93 17-24.5a117.1 117.1 0 0 1 14-4.5Zm4 2q24.28 2.28 25 27 .18 16.92-14 25.5-20.24 5.25-27.5-14.5-5.64-19.83 8.5-34.5a43.82 43.82 0 0 1 8-3.5Z"/>
		<path fill="currentColor" d="M2 611h70v25h-3q-1.11-17.55-18-21.5a130.6 130.6 0 0 0-22-1.5v24q16.31 1.2 18-15h3v32h-3q-1.71-16.2-18-15a95.31 95.31 0 0 0 1.5 22l2.5 2.5q6 1.41 12 2.5a232.2 232.2 0 0 1-43 0q5-1.18 10-2.5a7 7 0 0 0 2.5-3.5q1-21 0-42a15.56 15.56 0 0 0-11-5 1.91 1.91 0 0 1-1.5-2Z"/>
		<path fill="currentColor" fill-rule="evenodd" d="M109 611a4.38 4.38 0 0 1 3.5 1 549.12 549.12 0 0 0 28.5 51.5q4 1.15 8 2.5a172.05 172.05 0 0 1-37 0q5-1.11 10-2a17.07 17.07 0 0 0-4-13.5 168.41 168.41 0 0 0-26 0q-7.69 11.87 6 15.5a85.21 85.21 0 0 1-26 0 23.17 23.17 0 0 0 13.5-9q12.15-22.8 23.5-46Zm-5 15a1.82 1.82 0 0 1 2 1q5.7 10.13 11 20.5a143.53 143.53 0 0 1-24 0q5.73-10.71 11-21.5Z"/>
		<path fill="currentColor" d="M224 611q20.54-.5 41 1a19.82 19.82 0 0 1-8 2.5 11.56 11.56 0 0 0-4.5 3.5q-.75 10-.5 20h32a199.24 199.24 0 0 0-.5-20 11.42 11.42 0 0 0-4.5-3.5 19.82 19.82 0 0 1-8-2.5 211.15 211.15 0 0 1 41 0 19.82 19.82 0 0 1-8 2.5 11.56 11.56 0 0 0-4.5 3.5q-1 21 0 42a7 7 0 0 0 2.5 3.5q5 1.32 10 2.5a211.15 211.15 0 0 1-41 0 26.72 26.72 0 0 0 11.5-4 87 87 0 0 0 1.5-22h-32q-.24 10 .5 20a7 7 0 0 0 2.5 3.5q5 1.32 10 2.5a211.15 211.15 0 0 1-41 0q5-1.18 10-2.5a7 7 0 0 0 2.5-3.5q1-21 0-42a15.56 15.56 0 0 0-11-5 1.91 1.91 0 0 1-1.5-2ZM320 611q20-.5 40 1a53.81 53.81 0 0 1-10 3.5 9.72 9.72 0 0 0-1.5 2.5 120.52 120.52 0 0 0-1.5 21 137 137 0 0 0 1.5 22 19.46 19.46 0 0 0 11.5 5 201 201 0 0 1-40 0 27.09 27.09 0 0 1 7-1.5 8.16 8.16 0 0 0 5.5-4.5q1-20.5 0-41a11.88 11.88 0 0 0-11-6 1.91 1.91 0 0 1-1.5-2Z"/>
		<path fill="currentColor" fill-rule="evenodd" d="M370 698a50.44 50.44 0 0 1 36 9.5q15.24 15.46 4.5 34.5-17 17.84-41.5 13.5-25.14-3.88-30-28.5 1.68-16.93 17-24.5a117.1 117.1 0 0 1 14-4.5Zm4 2q24.63 2.38 25 27.5 0 16.62-14 25-20.24 5.25-27.5-14.5-5.64-19.83 8.5-34.5a43.82 43.82 0 0 1 8-3.5Z"/>
		<path fill="currentColor" d="M0 699h75v29h-3q-2.25-25.75-28-27a408.65 408.65 0 0 0 1.5 48 7.68 7.68 0 0 0 5.5 3.5 99.69 99.69 0 0 1 14 1.5 523.06 523.06 0 0 1-56 .5 60.49 60.49 0 0 1 15-2 8.16 8.16 0 0 0 5.5-4.5q.75-23.49.5-47-24.12 1.88-27.5 26a2.85 2.85 0 0 1-2.5 1Z"/>
		<path fill="currentColor" fill-rule="evenodd" d="M129 699a4.38 4.38 0 0 1 3.5 1 549.12 549.12 0 0 0 28.5 51.5q4 1.15 8 2.5a172.05 172.05 0 0 1-37 0q5-1.11 10-2a17.07 17.07 0 0 0-4-13.5 168.41 168.41 0 0 0-26 0q-7.69 11.87 6 15.5a85.21 85.21 0 0 1-26 0 23.17 23.17 0 0 0 13.5-9q12.15-22.8 23.5-46Zm-5 15a1.82 1.82 0 0 1 2 1q5.7 10.13 11 20.5a143.53 143.53 0 0 1-24 0q5.73-10.71 11-21.5Z"/>
		<path fill="currentColor" d="M187 699q20-.5 40 1a53.81 53.81 0 0 1-10 3.5 9.72 9.72 0 0 0-1.5 2.5 120.52 120.52 0 0 0-1.5 21 137 137 0 0 0 1.5 22 19.46 19.46 0 0 0 11.5 5 201 201 0 0 1-40 0 27.09 27.09 0 0 1 7-1.5 8.16 8.16 0 0 0 5.5-4.5q1-20.5 0-41a11.88 11.88 0 0 0-11-6 1.91 1.91 0 0 1-1.5-2ZM249 699q22-.5 44 1a34.47 34.47 0 0 1-11 2.5 7.53 7.53 0 0 0-4.5 4.5q-.75 23-.5 46a199.17 199.17 0 0 0 20-.5q17.58-4.34 20-22.5h3v25q-35.51.5-71-1a34.13 34.13 0 0 1 8-1.5q5.49-1.69 5.5-7.5.26-9 .5-18a120.52 120.52 0 0 0-1.5-21 9.19 9.19 0 0 0-1.5-2.5 58 58 0 0 0-9.5-2.5 1.91 1.91 0 0 1-1.5-2Z"/>
		<path fill="currentColor" fill-rule="evenodd" d="M437 699q29-.25 58 .5a24.19 24.19 0 0 1 18.5 7.5q6.45 13.86-8.5 18.5l-10 3a246.32 246.32 0 0 0 16 21 28.78 28.78 0 0 0 13 4.5 105.07 105.07 0 0 1-25 .5q-10.78-12.53-21-25.5a49.85 49.85 0 0 0-14-1 83.88 83.88 0 0 0 1.5 21 19.46 19.46 0 0 0 11.5 5 201 201 0 0 1-40 0 27.09 27.09 0 0 1 7-1.5 8.16 8.16 0 0 0 5.5-4.5q1-20.5 0-41a11.88 11.88 0 0 0-11-6 1.91 1.91 0 0 1-1.5-2Zm27 2a107.73 107.73 0 0 1 29 2.5q12.73 8.68 2 20a54.79 54.79 0 0 1-7 2q-12 .75-24 .5Z"/>
	</symbol>
	<symbol fill="none" viewBox="0 0 52 52" id="icon-notepad">
		<path fill="currentColor" fill-rule="evenodd" d="M10.157 52c-.99 0-1.926-.408-2.635-1.15a3.854 3.854 0 0 1-1.08-2.67v-2.623H3.714A3.719 3.719 0 0 1 0 41.843a3.719 3.719 0 0 1 3.714-3.715h2.728v-8.413H3.714A3.719 3.719 0 0 1 0 26a3.719 3.719 0 0 1 3.714-3.715h2.728v-8.413H3.714A3.72 3.72 0 0 1 0 10.157a3.719 3.719 0 0 1 3.714-3.714h2.728V3.714A3.719 3.719 0 0 1 10.157 0h34.96a3.719 3.719 0 0 1 3.715 3.714v30.8l.295.302A9.993 9.993 0 0 1 52 41.843C52 47.443 47.49 52 41.948 52h-31.79Zm31.791-19.117c-4.94 0-8.96 4.02-8.96 8.96 0 4.998 4.02 9.064 8.96 9.064 4.94 0 8.96-4.066 8.96-9.064 0-4.94-4.02-8.96-8.96-8.96Zm-31.79-31.79a2.625 2.625 0 0 0-2.623 2.621v2.697l.691.244a3.724 3.724 0 0 1 2.478 3.502 3.724 3.724 0 0 1-2.478 3.502l-.691.245v8.35l.691.244A3.725 3.725 0 0 1 10.704 26c0 1.57-.996 2.977-2.478 3.502l-.691.244v8.35l.691.245a3.724 3.724 0 0 1 2.478 3.502 3.725 3.725 0 0 1-2.478 3.501l-.691.245v2.59c0 1.454 1.225 2.728 2.622 2.728h26.61l-1.814-1.779a10.128 10.128 0 0 1-3.057-7.285c0-5.543 4.51-10.052 10.052-10.052 1.505 0 2.954.327 4.306.97l1.485.709V3.714a2.625 2.625 0 0 0-2.622-2.622h-34.96ZM3.713 39.22a2.625 2.625 0 0 0-2.622 2.623 2.625 2.625 0 0 0 2.622 2.622H6.99a2.625 2.625 0 0 0 2.622-2.622 2.625 2.625 0 0 0-2.622-2.623H3.714Zm0-15.842A2.625 2.625 0 0 0 1.092 26a2.625 2.625 0 0 0 2.622 2.622H6.99A2.625 2.625 0 0 0 9.61 26a2.625 2.625 0 0 0-2.622-2.622H3.714Zm0-15.843a2.625 2.625 0 0 0-2.622 2.622 2.625 2.625 0 0 0 2.622 2.622H6.99a2.625 2.625 0 0 0 2.622-2.622 2.625 2.625 0 0 0-2.622-2.622H3.714Z" clip-rule="evenodd"/>
		<path fill="currentColor" fill-rule="evenodd" d="M32.443 13.873a.547.547 0 0 1 0-1.093h9.505a.547.547 0 0 1 0 1.093h-9.505ZM32.443 26.546a.547.547 0 0 1 0-1.092h9.505a.546.546 0 0 1 0 1.092h-9.505ZM41.948 42.389a.547.547 0 0 1-.547-.546v-3.17a.547.547 0 0 1 1.093 0v2.623h2.622a.547.547 0 0 1 0 1.093h-3.168ZM19.663 17.04a.545.545 0 0 1-.386-.16l-3.614-3.613a.544.544 0 1 1 .771-.773l3.229 3.229 5.951-5.952a.544.544 0 0 1 .931.386.545.545 0 0 1-.159.387L20.05 16.88a.542.542 0 0 1-.386.16ZM19.663 29.715a.542.542 0 0 1-.386-.16l-3.614-3.614a.542.542 0 0 1-.16-.386.544.544 0 0 1 .932-.387l3.228 3.23 5.951-5.953a.544.544 0 0 1 .772 0 .543.543 0 0 1 0 .773l-6.337 6.337a.54.54 0 0 1-.386.16ZM19.663 42.389a.544.544 0 0 1-.386-.16l-3.614-3.614a.543.543 0 0 1-.16-.386.543.543 0 0 1 .546-.547.54.54 0 0 1 .386.16l3.228 3.23 5.951-5.953a.542.542 0 0 1 .772 0c.103.103.16.24.16.387a.542.542 0 0 1-.16.386l-6.337 6.337a.542.542 0 0 1-.386.16Z" clip-rule="evenodd"/>
	</symbol>
	<symbol fill="none" viewBox="0 0 17 18" id="icon-tg">
		<path stroke="currentColor" stroke-linecap="round" stroke-linejoin="round" stroke-width="2" d="m7.335 10.355 8.19-8.19m-8.09 8.446 2.05 5.27c.18.465.27.697.4.765a.39.39 0 0 0 .36 0c.13-.068.221-.3.402-.764l5.14-13.171c.164-.42.246-.629.2-.762a.39.39 0 0 0-.245-.247c-.134-.045-.344.037-.763.2L1.808 7.043c-.464.182-.696.272-.764.403a.39.39 0 0 0 0 .36c.068.13.3.22.764.4l5.271 2.05c.095.037.142.055.181.084a.39.39 0 0 1 .091.09c.029.04.047.088.084.182Z"/>
	</symbol>
	<symbol fill="none" viewBox="0 0 19 20" id="icon-whatsapp">
		<path stroke="currentColor" stroke-linecap="round" stroke-linejoin="round" stroke-width="2" d="M11.266 5.063c.827.16 1.588.564 2.184 1.157.596.593 1 1.35 1.162 2.174M11.266 1.69a7.637 7.637 0 0 1 4.546 2.173A7.576 7.576 0 0 1 18 8.385m-9.972 3.309a12.313 12.313 0 0 1-2.411-3.382c-.05-.105-.076-.157-.096-.224a.879.879 0 0 1 .125-.727c.04-.056.089-.104.186-.2.296-.296.444-.443.54-.591a1.68 1.68 0 0 0 0-1.839c-.096-.148-.244-.295-.54-.59l-.165-.165c-.45-.448-.676-.672-.917-.793a1.7 1.7 0 0 0-1.53 0c-.241.121-.466.345-.917.793l-.133.133c-.449.447-.673.67-.844.974-.19.337-.327.86-.326 1.246.001.349.069.587.205 1.063a16.038 16.038 0 0 0 4.128 6.985 16.142 16.142 0 0 0 7.016 4.11c.478.135.717.202 1.067.203.388.001.914-.135 1.252-.324.305-.17.53-.394.978-.84l.134-.134c.45-.448.675-.672.797-.912a1.68 1.68 0 0 0 0-1.523c-.122-.24-.347-.465-.797-.913l-.165-.164c-.296-.295-.445-.442-.594-.539a1.7 1.7 0 0 0-1.846 0c-.15.097-.297.244-.593.54-.097.095-.146.144-.202.184a.89.89 0 0 1-.73.124c-.067-.02-.12-.045-.226-.095a12.367 12.367 0 0 1-3.396-2.4Z"/>
	</symbol>
	<symbol fill="none" viewBox="0 0 37 37" id="icon-whatsapp--full">
		<path fill="currentColor" fill-rule="evenodd" d="M30.87 5.786C27.486 2.414 22.986.556 18.19.555 8.31.555.27 8.557.267 18.392a17.735 17.735 0 0 0 2.392 8.918L.115 36.555l9.503-2.48a17.97 17.97 0 0 0 8.565 2.17h.008c9.879 0 17.92-8.003 17.924-17.838a17.686 17.686 0 0 0-5.245-12.62v-.001ZM18.19 33.233h-.005c-2.673-.001-5.295-.716-7.583-2.067l-.544-.322-5.64 1.472 1.506-5.471-.355-.561a14.736 14.736 0 0 1-2.277-7.89c.003-8.176 6.687-14.827 14.905-14.827 3.98.002 7.72 1.546 10.533 4.349a14.7 14.7 0 0 1 4.359 10.489c-.003 8.175-6.687 14.827-14.898 14.827Zm8.173-11.105c-.448-.223-2.65-1.3-3.06-1.45-.412-.148-.71-.223-1.008.224-.298.446-1.157 1.45-1.418 1.747-.262.298-.523.335-.97.111-.448-.223-1.892-.693-3.603-2.212-1.331-1.182-2.23-2.64-2.491-3.087-.262-.447-.028-.688.196-.91.2-.2.447-.52.672-.78.224-.26.298-.447.448-.744.15-.297.074-.557-.037-.78-.112-.224-1.008-2.418-1.382-3.31-.363-.87-.733-.751-1.007-.766-.261-.012-.56-.015-.858-.015-.3 0-.784.111-1.195.558-.411.446-1.568 1.525-1.568 3.718s1.605 4.313 1.83 4.611c.223.298 3.158 4.8 7.65 6.73a25.76 25.76 0 0 0 2.554.94c1.072.34 2.049.292 2.82.177.86-.128 2.65-1.079 3.023-2.12.373-1.04.373-1.933.262-2.12-.112-.185-.411-.297-.86-.52l.002-.002Z" clip-rule="evenodd"/>
	</symbol>
</svg>
