<svg version="1.1" xmlns="http://www.w3.org/2000/svg">
	<symbol fill="none" viewBox="0 0 18 18" id="icon-arrow-diagonal">
		<path fill="currentColor" d="M17 18a1 1 0 0 0 1-1V8a1 1 0 1 0-2 0v8H8a1 1 0 1 0 0 2h9ZM.293 1.707l16 16 1.414-1.414-16-16L.293 1.707Z"/>
	</symbol>
	<symbol fill="none" viewBox="0 0 1531 175" id="icon-consultation">
		<path fill="#F15202" fill-opacity=".5" d="M65.946 73.362 116.405 147H79.073L33.126 80.541V147H.307V3.416h32.82v62.356L77.021 3.416h37.332L65.946 73.362Zm171.973 54.972c-14.495 14.358-32.135 21.538-52.921 21.538-20.785 0-38.425-7.18-52.92-21.538-14.496-14.358-21.743-32.067-21.743-53.126 0-21.059 7.247-38.768 21.743-53.126C146.573 7.724 164.213.544 184.998.544c20.786 0 38.426 7.18 52.921 21.538 14.496 14.358 21.743 32.067 21.743 53.126 0 21.059-7.247 38.768-21.743 53.126Zm-94.765-53.126c0 12.58 3.966 22.837 11.897 30.768 7.931 7.931 17.914 11.897 29.947 11.897 11.897 0 21.812-3.966 29.743-11.897 8.068-8.068 12.102-18.324 12.102-30.768 0-12.444-4.034-22.7-12.102-30.768-7.931-7.931-17.846-11.897-29.743-11.897-12.033 0-22.016 3.966-29.947 11.897-7.931 7.931-11.897 18.187-11.897 30.768Zm212.932-16.82V3.416h32.819V147h-32.819V89.977H310.96V147h-32.819V3.416h32.819v54.972h45.126Zm125.976 91.484c-21.469 0-39.315-7.111-53.536-21.333-14.085-14.221-21.128-31.998-21.128-53.331 0-21.332 7.043-39.041 21.128-53.126C442.61 7.724 460.456.544 482.062.544c12.854 0 24.751 3.009 35.691 9.026 10.939 5.88 19.554 13.948 25.845 24.204l-28.307 16.41c-3.145-5.607-7.658-9.915-13.538-12.923-5.743-3.145-12.307-4.718-19.691-4.718-12.854 0-23.042 3.897-30.563 11.692-7.521 7.658-11.282 17.982-11.282 30.973 0 12.99 3.761 23.315 11.282 30.973 7.521 7.795 17.709 11.692 30.563 11.692 7.247 0 13.811-1.573 19.691-4.718 6.017-3.145 10.53-7.452 13.538-12.922l28.307 16.409c-6.154 10.256-14.7 18.393-25.64 24.41-10.94 5.88-22.905 8.82-35.896 8.82Zm127.629-83.69 25.23-62.766h32.819l-41.434 101.329c-12.034 29.674-32.135 43.759-60.305 42.255v-30.768c13.264 1.231 22.836-3.487 28.717-14.153L548.771 3.416h32.819l28.101 62.767ZM655.489 147v-30.768c8.205 1.231 14.222-.068 18.051-3.897 3.829-3.829 5.743-11.282 5.743-22.358V3.416h99.278V147h-32.819V35.005h-33.64v53.74c0 24.479-6.222 41.025-18.666 49.64-10.939 7.384-23.588 10.256-37.947 8.615Zm180.49-98.458h21.537c14.222 0 26.119 4.787 35.691 14.359 9.709 9.709 14.564 21.332 14.564 34.87 0 13.538-4.855 25.162-14.564 34.871-9.572 9.572-21.469 14.358-35.691 14.358h-54.357V3.416h32.82v45.126Zm0 67.69h21.537c5.06 0 9.231-1.778 12.513-5.333 3.282-3.556 4.922-7.931 4.922-13.128 0-5.196-1.64-9.572-4.922-13.127-3.282-3.556-7.453-5.334-12.513-5.334h-21.537v36.922ZM897.467 3.416h106.663v31.588h-36.923V147h-32.819V35.005h-36.921V3.416ZM1135.45 147h-35.89l-7.18-22.563h-53.33L1031.87 147h-35.898L1044.79 3.416h41.85L1135.45 147Zm-69.74-106.047-16.82 52.716h33.64l-16.82-52.716Zm190.7-37.537v111.996h15.38v59.074h-32.81V147h-91.28V3.416h32.82v111.996h43.07V3.416h32.82ZM1402.13 147h-32.82V69.054L1313.93 147h-24.61V3.416h32.82v77.946l55.38-77.946h24.61V147Zm70.75-143.584h57.44V147h-32.82V99.822h-10.46L1456.47 147h-36.92l33.64-51.28c-8.61-3.555-15.72-9.299-21.33-17.23-5.47-7.931-8.2-16.546-8.2-25.845 0-13.675 4.78-25.298 14.35-34.87 9.58-9.573 21.2-14.359 34.87-14.359Zm0 67.69h24.62V34.184h-24.62c-4.51 0-8.41 1.778-11.69 5.333-3.14 3.556-4.72 7.931-4.72 13.128 0 5.196 1.58 9.572 4.72 13.127 3.28 3.556 7.18 5.334 11.69 5.334Z"/>
	</symbol>
	<symbol fill="none" viewBox="0 0 50 54" id="icon-finger">
		<path stroke="#434343" stroke-miterlimit="79.84" stroke-width="2.667" d="M34.857 27.191h2.19c.69 0 1.772.437 2.191 1.096h2.19c1.027 0 2.191.958 2.191 2.19h2.19c1.027 0 2.191.959 2.191 2.19V43.62c0 2.216-2.19 4-2.19 5.476v1.095M34.857 33.762V19.524a2.19 2.19 0 0 0-4.381 0v16.428l-1.465 1.403-2.861-4.435c-1.754-2.414-4.436-1.06-4.436 0 0 0 3.323 9.507 3.798 10.252.765 1.197 3.869 3.89 3.869 4.828v2.19M39.238 28.287v5.476M43.62 30.477v4.38"/>
		<path stroke="#434343" stroke-miterlimit="79.84" stroke-width="2.667" d="M48 53.477V50.19H27.19v3.286"/>
		<path stroke="#F15202" stroke-miterlimit="79.84" stroke-width="2.667" d="M21.715 43.59C10.731 43.022 2 33.936 2 22.81 2 11.316 11.316 2 22.81 2c11.492 0 20.809 9.316 20.809 20.81 0 .717-.037 1.427-.108 2.127"/>
		<path stroke="#F15202" stroke-miterlimit="79.84" stroke-width="2.667" d="M22.81 7.476V22.81l-7.667 4.381"/>
	</symbol>
	<symbol fill="none" viewBox="0 0 17 18" id="icon-tg">
		<path stroke="currentColor" stroke-linecap="round" stroke-linejoin="round" stroke-width="2" d="m7.335 10.355 8.19-8.19m-8.09 8.446 2.05 5.27c.18.465.27.697.4.765a.39.39 0 0 0 .36 0c.13-.068.221-.3.402-.764l5.14-13.171c.164-.42.246-.629.2-.762a.39.39 0 0 0-.245-.247c-.134-.045-.344.037-.763.2L1.808 7.043c-.464.182-.696.272-.764.403a.39.39 0 0 0 0 .36c.068.13.3.22.764.4l5.271 2.05c.095.037.142.055.181.084a.39.39 0 0 1 .091.09c.029.04.047.088.084.182Z"/>
	</symbol>
	<symbol fill="none" viewBox="0 0 19 20" id="icon-whatsapp">
		<path stroke="currentColor" stroke-linecap="round" stroke-linejoin="round" stroke-width="2" d="M11.266 5.063c.827.16 1.588.564 2.184 1.157.596.593 1 1.35 1.162 2.174M11.266 1.69a7.637 7.637 0 0 1 4.546 2.173A7.576 7.576 0 0 1 18 8.385m-9.972 3.309a12.313 12.313 0 0 1-2.411-3.382c-.05-.105-.076-.157-.096-.224a.879.879 0 0 1 .125-.727c.04-.056.089-.104.186-.2.296-.296.444-.443.54-.591a1.68 1.68 0 0 0 0-1.839c-.096-.148-.244-.295-.54-.59l-.165-.165c-.45-.448-.676-.672-.917-.793a1.7 1.7 0 0 0-1.53 0c-.241.121-.466.345-.917.793l-.133.133c-.449.447-.673.67-.844.974-.19.337-.327.86-.326 1.246.001.349.069.587.205 1.063a16.038 16.038 0 0 0 4.128 6.985 16.142 16.142 0 0 0 7.016 4.11c.478.135.717.202 1.067.203.388.001.914-.135 1.252-.324.305-.17.53-.394.978-.84l.134-.134c.45-.448.675-.672.797-.912a1.68 1.68 0 0 0 0-1.523c-.122-.24-.347-.465-.797-.913l-.165-.164c-.296-.295-.445-.442-.594-.539a1.7 1.7 0 0 0-1.846 0c-.15.097-.297.244-.593.54-.097.095-.146.144-.202.184a.89.89 0 0 1-.73.124c-.067-.02-.12-.045-.226-.095a12.367 12.367 0 0 1-3.396-2.4Z"/>
	</symbol>
	<symbol fill="none" viewBox="0 0 37 37" id="icon-whatsapp--full">
		<path fill="currentColor" fill-rule="evenodd" d="M30.87 5.786C27.486 2.414 22.986.556 18.19.555 8.31.555.27 8.557.267 18.392a17.735 17.735 0 0 0 2.392 8.918L.115 36.555l9.503-2.48a17.97 17.97 0 0 0 8.565 2.17h.008c9.879 0 17.92-8.003 17.924-17.838a17.686 17.686 0 0 0-5.245-12.62v-.001ZM18.19 33.233h-.005c-2.673-.001-5.295-.716-7.583-2.067l-.544-.322-5.64 1.472 1.506-5.471-.355-.561a14.736 14.736 0 0 1-2.277-7.89c.003-8.176 6.687-14.827 14.905-14.827 3.98.002 7.72 1.546 10.533 4.349a14.7 14.7 0 0 1 4.359 10.489c-.003 8.175-6.687 14.827-14.898 14.827Zm8.173-11.105c-.448-.223-2.65-1.3-3.06-1.45-.412-.148-.71-.223-1.008.224-.298.446-1.157 1.45-1.418 1.747-.262.298-.523.335-.97.111-.448-.223-1.892-.693-3.603-2.212-1.331-1.182-2.23-2.64-2.491-3.087-.262-.447-.028-.688.196-.91.2-.2.447-.52.672-.78.224-.26.298-.447.448-.744.15-.297.074-.557-.037-.78-.112-.224-1.008-2.418-1.382-3.31-.363-.87-.733-.751-1.007-.766-.261-.012-.56-.015-.858-.015-.3 0-.784.111-1.195.558-.411.446-1.568 1.525-1.568 3.718s1.605 4.313 1.83 4.611c.223.298 3.158 4.8 7.65 6.73a25.76 25.76 0 0 0 2.554.94c1.072.34 2.049.292 2.82.177.86-.128 2.65-1.079 3.023-2.12.373-1.04.373-1.933.262-2.12-.112-.185-.411-.297-.86-.52l.002-.002Z" clip-rule="evenodd"/>
	</symbol>
</svg>
